<svg id="visual" viewBox="0 0 960 540" width="960" height="540" xmlns="http://www.w3.org/2000/svg" xmlns:xlink="http://www.w3.org/1999/xlink" version="1.1"><path d="M0 332L74 385L148 387L222 387L295 348L369 356L443 379L517 384L591 389L665 343L738 370L812 376L886 376L960 353L960 541L886 541L812 541L738 541L665 541L591 541L517 541L443 541L369 541L295 541L222 541L148 541L74 541L0 541Z" fill="#09002c"></path><path d="M0 370L74 380L148 389L222 413L295 365L369 405L443 378L517 373L591 391L665 379L738 356L812 388L886 386L960 388L960 541L886 541L812 541L738 541L665 541L591 541L517 541L443 541L369 541L295 541L222 541L148 541L74 541L0 541Z" fill="#05153b"></path><path d="M0 427L74 416L148 424L222 394L295 427L369 424L443 408L517 421L591 429L665 403L738 407L812 395L886 437L960 398L960 541L886 541L812 541L738 541L665 541L591 541L517 541L443 541L369 541L295 541L222 541L148 541L74 541L0 541Z" fill="#04234a"></path><path d="M0 440L74 442L148 433L222 431L295 440L369 453L443 420L517 457L591 438L665 428L738 454L812 461L886 424L960 426L960 541L886 541L812 541L738 541L665 541L591 541L517 541L443 541L369 541L295 541L222 541L148 541L74 541L0 541Z" fill="#023159"></path><path d="M0 455L74 454L148 465L222 462L295 479L369 467L443 487L517 482L591 484L665 485L738 479L812 478L886 456L960 457L960 541L886 541L812 541L738 541L665 541L591 541L517 541L443 541L369 541L295 541L222 541L148 541L74 541L0 541Z" fill="#004068"></path><path d="M0 506L74 514L148 486L222 488L295 503L369 489L443 487L517 489L591 490L665 490L738 498L812 496L886 500L960 503L960 541L886 541L812 541L738 541L665 541L591 541L517 541L443 541L369 541L295 541L222 541L148 541L74 541L0 541Z" fill="#004f76"></path></svg>